<svg width="148" height="132" viewBox="82 0 148 132" fill="none" xmlns="http://www.w3.org/2000/svg">
  <path d="M171.097109,28.863777 L171.097109,28.870123 L138.842234,28.870123 C118.766199,28.870123 102.491361,45.5311879 102.491361,66.0833573 C102.491361,86.6352827 118.766199,103.296348 138.842234,103.296348 L142.937993,103.296348 L146.778034,103.296348 L162.52142,103.296348 C166.551165,103.296348 169.817334,99.9522236 169.817334,95.8275356 C169.817334,91.7028471 166.551165,88.3587234 162.52142,88.3587234 L147.034228,88.3587234 L146.778034,88.3587234 L141.657979,88.3587234 C128.375241,88.3587234 117.595097,78.4483909 117.595097,66.1507233 C117.595097,53.8530556 128.375241,43.7808986 141.657979,43.7808986 L157.993826,43.8328873 C157.993826,43.8233683 157.994303,43.8136052 157.994303,43.803842 L178.260755,43.803842 C178.260755,52.4910955 170.768943,59.5330139 161.527628,59.5330139 C161.217813,59.5330139 160.927063,59.5239831 160.649659,59.5086059 L160.649659,59.5317935 L139.226166,59.5317935 C135.621346,59.5317935 132.698834,62.5234676 132.698834,66.2141838 C132.698834,69.9048994 135.621346,72.8973058 139.226166,72.8973058 L145.498259,72.8973058 L146.778034,72.8973058 L147.034228,72.8973058 L162.52142,72.8973058 C174.892585,72.8973058 184.920832,83.1635057 184.920832,95.8275356 C184.920832,108.49181 174.892585,118.758497 162.52142,118.758497 L146.778034,118.758497 L138.842234,118.758497 C110.424779,118.758497 87.3876244,95.1748687 87.3876244,66.0833573 C87.3876244,36.991846 110.424779,13.4082174 138.842234,13.4082174 L155.737894,13.4082174 L171.097109,13.4082174 L185.944652,13.4082174 C185.944652,21.859691 179.320085,28.7231875 171.097109,28.863777 M227.127503,21.2208616 L218.118492,21.2208616 L218.118492,30.7987895 C218.118492,31.6218853 217.435751,32.2891766 216.593541,32.2891766 L208.45844,32.2891766 C207.616231,32.2891766 206.933246,31.6218853 206.933246,30.7987895 L206.933246,21.2208616 L198.147101,21.2208616 C197.304404,21.2208616 196.621664,20.5535704 196.621664,19.7304747 L196.621664,12.5274934 C196.621664,11.7043977 197.304404,11.0378212 198.147101,11.0378212 L206.933246,11.0378212 L206.933246,1.49038697 C206.933246,0.667291227 207.616231,0 208.45844,0 L216.593541,0 C217.435751,0 218.118492,0.667291227 218.118492,1.49038697 L218.118492,11.0378212 L227.127503,11.0378212 C227.969713,11.0378212 228.652698,11.7043977 228.652698,12.5274934 L228.652698,19.7304747 C228.652698,20.5535704 227.969713,21.2208616 227.127503,21.2208616" fill="#FFFFFF" fill-rule="nonzero"/>
</svg>
