<?xml version="1.0" encoding="UTF-8"?>
<svg width="296px" height="210px" viewBox="0 0 296 210" version="1.1" xmlns="http://www.w3.org/2000/svg" xmlns:xlink="http://www.w3.org/1999/xlink">
    <title>Stacked logo（All White）</title>
    <g id="页面-1" stroke="none" stroke-width="1" fill="none" fill-rule="evenodd">
        <g id="Goplus-Brand-Kit" transform="translate(-1684.000000, -4928.000000)" fill="#FFFFFF" fill-rule="nonzero">
            <g id="Stacked-logo（All-White）" transform="translate(1684.000000, 4928.000000)">
                <g id="编组-59" transform="translate(0.000000, 161.918269)">
                    <g id="GO">
                        <path d="M25.7847328,23.0207427 L44.6718276,23.0207427 L44.6718276,24.5454931 C44.6718276,28.0135531 44.2672451,31.0829854 43.4580801,33.7537902 C42.6686509,36.2252812 41.336489,38.5373211 39.4615945,40.6899101 C35.2184123,45.5133038 29.8206898,47.9250006 23.2684271,47.9250006 C16.8740502,47.9250006 11.3973848,45.5930293 6.83843086,40.9290866 C2.27947695,36.2452126 0,30.6245637 0,24.06714 C0,17.3701967 2.31894842,11.6897537 6.95684525,7.02581107 C11.5947421,2.34193702 17.2391612,0 23.8901026,0 C27.46227,0 30.7976085,0.73746102 33.8961183,2.21238306 C36.856478,3.6873051 39.7674984,6.07907057 42.6291794,9.38767947 L37.7149823,14.1413133 C33.9651934,9.09867448 29.3963716,6.57735504 24.008517,6.57735504 C19.1732629,6.57735504 15.1175701,8.26155656 11.8414387,11.6299596 C8.56530734,14.9385685 6.92724165,19.0842953 6.92724165,24.06714 C6.92724165,29.2094358 8.75279679,33.4448538 12.4039071,36.7733941 C15.8181886,39.8627578 19.5186382,41.4074397 23.5052559,41.4074397 C26.8998016,41.4074397 29.9489721,40.2514197 32.6527673,37.9393798 C35.3565624,35.6074084 36.8663459,32.8170154 37.1821176,29.5682006 L25.7847328,29.5682006 L25.7847328,23.0207427 Z" id="路径"></path>
                        <path d="M56.9483582,23.7681694 C56.9483582,17.2705398 59.3067781,11.6897537 64.0236179,7.02581107 C68.7207219,2.3618684 74.365141,0.0298970684 80.9568753,0.0298970684 C87.4696666,0.0298970684 93.0548785,2.38179978 97.712511,7.08560521 C102.389879,11.7894106 104.728563,17.4399566 104.728563,24.037243 C104.728563,30.6743922 102.380011,36.3050067 97.6829075,40.9290866 C92.9660677,45.5730979 87.2723092,47.8951035 80.6016321,47.8951035 C74.7006485,47.8951035 69.4016046,45.8322058 64.7045006,41.7064104 C59.533739,37.1421246 56.9483582,31.1627109 56.9483582,23.7681694 Z M63.9052035,23.8578606 C63.9052035,28.9602936 65.6024764,33.1558488 68.9970221,36.4445264 C72.3718322,39.7332039 76.2696391,41.3775426 80.6904429,41.3775426 C85.4862256,41.3775426 89.5320505,39.7033068 92.8279176,36.3548351 C96.1237847,32.9665007 97.7717182,28.8407053 97.7717182,23.9774488 C97.7717182,19.0543982 96.1435204,14.9286028 92.8871248,11.6000625 C89.6504649,8.25159087 85.6441114,6.57735504 80.8680645,6.57735504 C76.1117532,6.57735504 72.0955319,8.25159087 68.8194006,11.6000625 C65.5432692,14.9086714 63.9052035,18.9946041 63.9052035,23.8578606 Z" id="形状"></path>
                    </g>
                    <g id="PLUS" transform="translate(116.724282, 0.157335)">
                        <path d="M0,0.904233896 L0,47.0201626 L7.4682296,47.0201626 L7.4682296,29.3230135 L18.7663205,29.3230135 C29.8729184,29.3230135 35.4262173,24.5434915 35.4262173,15.0490356 C35.4262173,5.61916778 29.8729184,0.904233896 18.8939826,0.904233896 L0,0.904233896 Z M7.4682296,7.36304744 L18.3195034,7.36304744 C21.5748855,7.36304744 24.0004644,7.94434066 25.5324089,9.17151523 C27.0643534,10.3341017 27.8941567,12.2717457 27.8941567,15.0490356 C27.8941567,17.8263254 27.1281845,19.8285576 25.5962399,21.0557322 C24.0642954,22.2183186 21.6387165,22.8642 18.3195034,22.8642 L7.4682296,22.8642 L7.4682296,7.36304744 Z" id="形状"></path>
                        <polygon id="路径" points="47.6945094 0.904233896 47.6945094 47.0201626 79.7376826 47.0201626 79.7376826 40.5613491 55.098908 40.5613491 55.098908 0.904233896"></polygon>
                        <path d="M91.3676645,0.904233896 L91.3676645,29.5167779 C91.3676645,35.5234745 93.0272711,40.1092321 96.4103152,43.3386389 C99.6018664,46.3742813 104.261531,47.9243965 110.325478,47.9243965 C116.325594,47.9243965 120.985259,46.3742813 124.304472,43.2740508 C127.623685,40.1092321 129.283292,35.5234745 129.283292,29.5167779 L129.283292,0.904233896 L121.815062,0.904233896 L121.815062,29.6459542 C121.815062,33.6504186 120.857597,36.5568847 119.070328,38.4945287 C117.219228,40.3675847 114.283001,41.3364067 110.325478,41.3364067 C106.304124,41.3364067 103.367897,40.3675847 101.580628,38.4945287 C99.7295284,36.5568847 98.8358941,33.6504186 98.8358941,29.6459542 L98.8358941,0.904233896 L91.3676645,0.904233896 Z" id="路径"></path>
                        <path d="M160.190242,0 C155.275254,0 151.253899,1.0979983 148.062348,3.35858304 C144.615473,5.68375592 142.955866,8.91316269 142.955866,12.9822152 C142.955866,17.0512678 144.679304,20.1514983 148.19001,22.2829067 C149.530462,23.0579644 153.041168,24.3497271 158.658298,26.1581949 C163.700949,27.7083101 166.637176,28.7417203 167.53081,29.1938372 C170.339375,30.6147762 171.807488,32.5524203 171.807488,35.0067694 C171.807488,36.9444135 170.786192,38.4299406 168.871261,39.592527 C166.956331,40.6905253 164.275428,41.2718186 160.956215,41.2718186 C157.190184,41.2718186 154.44545,40.5613491 152.658182,39.2695864 C150.67942,37.7840592 149.466631,35.265122 148.955982,31.7773626 L141.551584,31.7773626 C141.870739,37.654883 143.977163,41.9176999 147.807024,44.6304016 C150.934744,46.8263982 155.339085,47.9243965 160.956215,47.9243965 C166.764838,47.9243965 171.29684,46.6972219 174.488391,44.3720491 C177.679942,41.982288 179.275718,38.6882931 179.275718,34.5546525 C179.275718,30.2918355 177.296956,26.9978406 173.339433,24.6080796 C171.552164,23.5746694 167.594641,22.0245542 161.403032,20.0869101 C157.190184,18.7305593 154.573112,17.7617372 153.615647,17.2450322 C151.445392,16.0824457 150.424096,14.4677423 150.424096,12.5300983 C150.424096,10.3341017 151.31773,8.71939829 153.232661,7.75057625 C154.764605,6.91093049 156.93486,6.52340168 159.807256,6.52340168 C163.126469,6.52340168 165.67971,7.1046949 167.339317,8.39645761 C168.998923,9.62363218 170.211713,11.6904525 170.850023,14.5323305 L178.254422,14.5323305 C177.807604,9.49445591 175.956505,5.74834406 172.764954,3.35858304 C169.764896,1.0979983 165.552048,0 160.190242,0 Z" id="路径"></path>
                    </g>
                </g>
                <path d="M171.097109,28.863777 L171.097109,28.870123 L138.842234,28.870123 C118.766199,28.870123 102.491361,45.5311879 102.491361,66.0833573 C102.491361,86.6352827 118.766199,103.296348 138.842234,103.296348 L142.937993,103.296348 L146.778034,103.296348 L162.52142,103.296348 C166.551165,103.296348 169.817334,99.9522236 169.817334,95.8275356 C169.817334,91.7028471 166.551165,88.3587234 162.52142,88.3587234 L147.034228,88.3587234 L146.778034,88.3587234 L141.657979,88.3587234 C128.375241,88.3587234 117.595097,78.4483909 117.595097,66.1507233 C117.595097,53.8530556 128.375241,43.7808986 141.657979,43.7808986 L157.993826,43.8328873 C157.993826,43.8233683 157.994303,43.8136052 157.994303,43.803842 L178.260755,43.803842 C178.260755,52.4910955 170.768943,59.5330139 161.527628,59.5330139 C161.217813,59.5330139 160.927063,59.5239831 160.649659,59.5086059 L160.649659,59.5317935 L139.226166,59.5317935 C135.621346,59.5317935 132.698834,62.5234676 132.698834,66.2141838 C132.698834,69.9048994 135.621346,72.8973058 139.226166,72.8973058 L145.498259,72.8973058 L146.778034,72.8973058 L147.034228,72.8973058 L162.52142,72.8973058 C174.892585,72.8973058 184.920832,83.1635057 184.920832,95.8275356 C184.920832,108.49181 174.892585,118.758497 162.52142,118.758497 L146.778034,118.758497 L138.842234,118.758497 C110.424779,118.758497 87.3876244,95.1748687 87.3876244,66.0833573 C87.3876244,36.991846 110.424779,13.4082174 138.842234,13.4082174 L155.737894,13.4082174 L171.097109,13.4082174 L185.944652,13.4082174 C185.944652,21.859691 179.320085,28.7231875 171.097109,28.863777 M227.127503,21.2208616 L218.118492,21.2208616 L218.118492,30.7987895 C218.118492,31.6218853 217.435751,32.2891766 216.593541,32.2891766 L208.45844,32.2891766 C207.616231,32.2891766 206.933246,31.6218853 206.933246,30.7987895 L206.933246,21.2208616 L198.147101,21.2208616 C197.304404,21.2208616 196.621664,20.5535704 196.621664,19.7304747 L196.621664,12.5274934 C196.621664,11.7043977 197.304404,11.0378212 198.147101,11.0378212 L206.933246,11.0378212 L206.933246,1.49038697 C206.933246,0.667291227 207.616231,0 208.45844,0 L216.593541,0 C217.435751,0 218.118492,0.667291227 218.118492,1.49038697 L218.118492,11.0378212 L227.127503,11.0378212 C227.969713,11.0378212 228.652698,11.7043977 228.652698,12.5274934 L228.652698,19.7304747 C228.652698,20.5535704 227.969713,21.2208616 227.127503,21.2208616" id="Fill-1"></path>
            </g>
        </g>
    </g>
</svg>